<?xml version="1.0" encoding="utf-8"?>
<!-- Generator: Adobe Illustrator 15.0.2, SVG Export Plug-In . SVG Version: 6.00 Build 0)  -->
<!DOCTYPE svg PUBLIC "-//W3C//DTD SVG 1.1//EN" "http://www.w3.org/Graphics/SVG/1.1/DTD/svg11.dtd">
<svg version="1.1" id="Layer_1" xmlns="http://www.w3.org/2000/svg" xmlns:xlink="http://www.w3.org/1999/xlink" x="0px" y="0px"
	 width="312.326px" height="221.388px" viewBox="0 0 312.326 221.388" enable-background="new 0 0 312.326 221.388"
	 xml:space="preserve">
<g>
	<g>
		<g>
			<path fill="#2E1313" d="M54.476,52.049c-0.589,0.179-1.232,0.41-1.916,0.64c-0.688,0.252-1.703,0.634-3.051,1.166
				c-9.593,3.747-16.172,8.622-19.725,14.594c-3.542,5.97-3.864,12.675-0.958,20.106c2.941,7.504,7.734,12.251,14.394,14.228
				c6.665,1.981,14.798,1.105,24.387-2.657c1.351-0.528,2.379-0.941,3.065-1.234c0.685-0.296,1.305-0.539,1.84-0.757l7.935,20.295
				l-2.278,0.889c-7.66,2.994-14.583,5.014-20.799,6.044c-6.208,1.034-11.762,1.088-16.663,0.165
				c-8.021-1.562-15.009-4.79-20.97-9.673c-5.951-4.884-10.396-11.066-13.314-18.535c-2.922-7.483-3.852-15-2.806-22.583
				c1.052-7.581,4.015-14.675,8.888-21.283c2.974-3.998,7.093-7.728,12.351-11.195c5.264-3.442,11.718-6.673,19.39-9.673l2.27-0.885
				L54.476,52.049z"/>
			<path fill="#2E1313" d="M237.154,66.987c1.364,10.236-0.193,18.165-4.699,23.788c-4.511,5.62-12.091,9.146-22.764,10.57
				l-22.477,3.045l1.836-21.688l17.461-2.328c3.105-0.421,5.345-1.514,6.707-3.278c1.375-1.753,1.842-4.177,1.441-7.234
				l-8.008-59.849l22.479-3.02L237.154,66.987z"/>
			<path fill="#2E1313" d="M237.545,72.233c1.756,2.297,3.637,3.601,5.665,3.902c2.016,0.302,4.142-0.402,6.393-2.107l12.582-9.596
				l12.045,15.79l-12.858,9.806c-7.686,5.861-14.811,8.356-21.349,7.501c-6.547-0.867-12.742-5.153-18.613-12.844L237.545,72.233z"
				/>
			<path fill="#2E1313" d="M59.822,92.199c-0.69-5.097-0.396-10.061,0.891-14.894c1.283-4.833,3.486-9.344,6.617-13.538
				c3.113-4.082,6.809-7.376,11.111-9.878c4.299-2.499,8.98-4.092,14.053-4.779c5.063-0.685,10.025-0.377,14.877,0.911
				c4.846,1.305,9.292,3.508,13.343,6.617c4.011,3.089,7.265,6.805,9.771,11.136c2.508,4.335,4.104,9.068,4.801,14.206
				c0.701,5.183,0.426,10.202-0.833,15.086c-1.261,4.875-3.41,9.316-6.457,13.332c-3.073,4.111-6.771,7.437-11.096,9.976
				c-4.333,2.543-9.036,4.156-14.1,4.84c-5.029,0.683-9.957,0.372-14.771-0.929c-4.818-1.304-9.287-3.521-13.406-6.659
				c-4.132-3.207-7.455-6.964-9.975-11.261C62.125,102.059,60.52,97.34,59.822,92.199 M78.543,89.556
				c0.746,5.521,3.238,9.962,7.51,13.315c4.256,3.364,9.012,4.693,14.261,3.981c5.252-0.711,9.446-3.247,12.618-7.59
				c3.16-4.357,4.363-9.309,3.611-14.854c-0.75-5.542-3.217-9.979-7.404-13.301c-4.188-3.314-8.916-4.624-14.194-3.909
				c-5.315,0.721-9.562,3.253-12.749,7.582C79.012,79.117,77.796,84.043,78.543,89.556"/>
			<path fill="#2E1313" d="M131.067,81.16c-0.665-4.919-0.382-9.691,0.847-14.345c1.236-4.647,3.357-8.995,6.368-13.026
				c2.993-3.928,6.558-7.097,10.696-9.51c4.134-2.402,8.65-3.931,13.52-4.591c4.885-0.662,9.656-0.373,14.324,0.873
				s8.951,3.372,12.847,6.364c3.862,2.976,6.997,6.54,9.401,10.711c2.418,4.177,3.957,8.735,4.625,13.687
				c0.674,4.975,0.41,9.818-0.807,14.516c-1.201,4.692-3.277,8.967-6.213,12.827c-2.955,3.961-6.516,7.157-10.685,9.605
				c-4.169,2.442-8.688,3.993-13.575,4.655c-4.832,0.654-9.576,0.356-14.207-0.894c-4.637-1.257-8.939-3.386-12.908-6.409
				c-3.975-3.088-7.174-6.704-9.6-10.845C133.282,90.64,131.737,86.099,131.067,81.16 M149.078,78.607
				c0.719,5.309,3.121,9.58,7.224,12.815c4.101,3.236,8.681,4.513,13.72,3.83c5.054-0.684,9.102-3.119,12.16-7.308
				c3.035-4.188,4.191-8.948,3.468-14.29c-0.723-5.338-3.095-9.609-7.126-12.803c-4.025-3.196-8.578-4.449-13.668-3.76
				c-5.109,0.692-9.203,3.125-12.258,7.299C149.53,68.564,148.359,73.297,149.078,78.607"/>
		</g>
		<g>
			<g>
				<g>
					<path fill="#FFFFFF" d="M173.615,33.558c-4.66-1.248-9.439-1.54-14.324-0.878c-4.86,0.658-9.377,2.192-13.517,4.598
						c-4.141,2.41-7.696,5.576-10.694,9.505c-3.012,4.04-5.135,8.378-6.369,13.028c1.023,1.329,1.969,2.724,2.822,4.196
						c0.301,0.521,0.588,1.049,0.863,1.581c0.16-0.852,0.342-1.7,0.564-2.544c1.233-4.643,3.354-8.988,6.365-13.028
						c2.999-3.928,6.561-7.094,10.697-9.502c4.134-2.402,8.65-3.94,13.521-4.601c4.885-0.661,9.659-0.372,14.321,0.88
						c3.751,1.003,7.249,2.58,10.5,4.707c-0.615-0.54-1.244-1.069-1.901-1.575C182.565,36.929,178.282,34.809,173.615,33.558z
						 M225.929,0l-22.481,3.008l8.005,59.855c0.406,3.056-0.064,5.48-1.435,7.232c-1.084,1.404-2.736,2.375-4.931,2.927
						c-0.008,1.322-0.069,2.637-0.215,3.939l2.681-0.357c3.109-0.421,5.352-1.51,6.716-3.273c1.368-1.755,1.835-4.176,1.437-7.238
						l-8.012-59.846l18.734-2.513L225.929,0z M258.979,57.422L246.4,67.028c-2.253,1.7-4.382,2.408-6.397,2.108
						c-0.369-0.056-0.731-0.155-1.09-0.277c1.665,2.046,3.438,3.227,5.345,3.512c2.008,0.3,4.143-0.403,6.397-2.113l11.449-8.737
						L258.979,57.422z M179.574,57.088c-0.824-0.653-1.676-1.204-2.542-1.695c2.991,2.982,4.804,6.729,5.417,11.257
						c0.722,5.34-0.438,10.107-3.479,14.291c-3.055,4.188-7.098,6.622-12.156,7.307c-4.038,0.548-7.779-0.187-11.217-2.157
						c0.547,0.543,1.121,1.07,1.748,1.564c4.105,3.24,8.681,4.513,13.727,3.831c5.049-0.685,9.095-3.122,12.15-7.311
						c3.042-4.185,4.197-8.944,3.475-14.287C185.975,64.551,183.602,60.28,179.574,57.088z M104.17,43.024
						c-4.852-1.293-9.815-1.601-14.878-0.916c-5.071,0.686-9.759,2.276-14.06,4.776c-4.3,2.505-7.995,5.8-11.108,9.882
						c-3.126,4.188-5.329,8.7-6.612,13.527c-1.289,4.838-1.58,9.806-0.891,14.902c0.465,3.429,1.342,6.663,2.617,9.716
						c-7.379,2.197-13.791,2.484-19.223,0.867c-1.57-0.466-3.033-1.091-4.396-1.864c2.409,2.401,5.291,4.104,8.649,5.103
						c5.428,1.612,11.84,1.325,19.216-0.871c-1.274-3.053-2.151-6.288-2.615-9.715c-0.691-5.095-0.397-10.061,0.892-14.897
						c1.279-4.828,3.48-9.34,6.616-13.534c3.106-4.086,6.81-7.37,11.108-9.876c4.297-2.498,8.984-4.098,14.052-4.784
						c5.066-0.685,10.031-0.372,14.88,0.919c3.938,1.055,7.609,2.72,11.025,4.976c-0.625-0.548-1.263-1.085-1.93-1.599
						C113.461,46.525,109.012,44.325,104.17,43.024z M110.188,67.342c-0.823-0.652-1.674-1.204-2.54-1.701
						c3.146,3.113,5.05,7.035,5.69,11.769c0.751,5.545-0.456,10.496-3.614,14.85c-3.165,4.345-7.362,6.88-12.612,7.59
						c-4.25,0.576-8.17-0.207-11.768-2.3c0.55,0.54,1.126,1.063,1.752,1.557c4.262,3.363,9.014,4.692,14.263,3.982
						c5.252-0.711,9.445-3.25,12.619-7.589c3.157-4.36,4.361-9.31,3.61-14.855C116.838,75.102,114.373,70.658,110.188,67.342z
						 M136.75,91.015c-0.196-0.335-0.377-0.677-0.562-1.017c-0.133,0.804-0.298,1.603-0.481,2.398
						c1.846,2.268,3.974,4.344,6.395,6.225c0.754,0.575,1.524,1.107,2.303,1.618C141.319,97.524,138.763,94.454,136.75,91.015z
						 M13.551,49.687c2.975-4.001,7.092-7.729,12.349-11.194c5.188-3.397,11.542-6.58,19.071-9.55l-1.661-4.248l-2.274,0.885
						c-7.669,3.003-14.125,6.229-19.385,9.676c-5.262,3.465-9.377,7.197-12.351,11.195c-4.874,6.606-7.831,13.706-8.884,21.282
						c-1.047,7.584-0.12,15.105,2.807,22.584c2.916,7.464,7.36,13.647,13.314,18.531c1.109,0.91,2.267,1.744,3.447,2.539
						c-5.546-4.771-9.728-10.714-12.515-17.835c-2.924-7.479-3.852-14.995-2.808-22.584C5.711,63.392,8.675,56.294,13.551,49.687z"
						/>
				</g>
			</g>
		</g>
		<path fill="#F48220" d="M53.148,47.582c-0.589,0.182-1.234,0.407-1.912,0.646c-0.693,0.25-1.713,0.63-3.054,1.166
			c-9.595,3.747-16.173,8.615-19.724,14.588c-3.545,5.97-3.867,12.675-0.957,20.105c2.943,7.511,7.731,12.252,14.395,14.232
			c6.66,1.979,14.797,1.102,24.387-2.662c1.346-0.526,2.375-0.94,3.063-1.233s1.302-0.539,1.839-0.752l7.932,20.291l-2.275,0.893
			c-7.662,2.992-14.587,5.01-20.8,6.044c-6.21,1.029-11.763,1.086-16.663,0.16c-8.021-1.561-15.008-4.792-20.971-9.673
			c-5.951-4.879-10.391-11.068-13.311-18.535c-2.923-7.475-3.85-14.991-2.807-22.578c1.052-7.577,4.016-14.682,8.89-21.285
			c2.968-4.001,7.089-7.729,12.341-11.192c5.264-3.451,11.723-6.674,19.395-9.678l2.274-0.887L53.148,47.582z"/>
		<path fill="#F48220" d="M235.826,62.526c1.36,10.233-0.189,18.158-4.699,23.785c-4.51,5.617-12.091,9.143-22.764,10.567
			l-22.477,3.045l1.836-21.689l17.459-2.33c3.104-0.421,5.35-1.509,6.709-3.269c1.372-1.756,1.839-4.18,1.444-7.239l-8.011-59.85
			l22.483-3.017L235.826,62.526z"/>
		<path fill="#F48220" d="M236.217,67.766c1.75,2.299,3.635,3.6,5.665,3.903c2.014,0.301,4.146-0.403,6.397-2.109l12.577-9.595
			l12.045,15.789l-12.862,9.812c-7.685,5.857-14.803,8.353-21.345,7.496c-6.547-0.866-12.738-5.153-18.613-12.839L236.217,67.766z"
			/>
		<path fill="#F48220" d="M58.5,87.737c-0.689-5.097-0.4-10.064,0.887-14.898c1.281-4.832,3.484-9.345,6.618-13.533
			c3.108-4.088,6.81-7.373,11.11-9.877c4.299-2.499,8.982-4.098,14.05-4.783c5.067-0.687,10.026-0.373,14.882,0.916
			c4.842,1.299,9.287,3.497,13.342,6.613c4.012,3.091,7.265,6.795,9.77,11.132c2.51,4.335,4.104,9.069,4.799,14.212
			c0.701,5.177,0.43,10.201-0.832,15.081c-1.256,4.878-3.406,9.318-6.457,13.333c-3.075,4.11-6.773,7.434-11.094,9.979
			c-4.337,2.539-9.036,4.148-14.104,4.836c-5.027,0.68-9.955,0.372-14.77-0.926c-4.818-1.31-9.287-3.524-13.402-6.66
			c-4.137-3.211-7.459-6.963-9.977-11.263C60.799,97.593,59.196,92.873,58.5,87.737 M77.22,85.092
			c0.747,5.519,3.239,9.958,7.503,13.313c4.264,3.366,9.016,4.698,14.264,3.986c5.248-0.71,9.445-3.253,12.619-7.59
			c3.158-4.363,4.36-9.312,3.61-14.856c-0.751-5.544-3.215-9.986-7.402-13.301c-4.185-3.318-8.913-4.626-14.198-3.911
			c-5.314,0.72-9.562,3.249-12.744,7.58C77.682,74.653,76.473,79.579,77.22,85.092"/>
		<path fill="#F48220" d="M129.739,76.696c-0.665-4.918-0.382-9.693,0.845-14.348c1.238-4.646,3.364-8.991,6.369-13.029
			c2.997-3.928,6.559-7.098,10.697-9.503c4.134-2.404,8.651-3.939,13.523-4.598c4.881-0.662,9.652-0.373,14.324,0.877
			c4.659,1.251,8.948,3.371,12.848,6.364c3.857,2.976,6.992,6.545,9.398,10.719c2.414,4.171,3.955,8.728,4.627,13.682
			c0.672,4.971,0.402,9.815-0.809,14.516c-1.203,4.694-3.279,8.965-6.209,12.823c-2.957,3.963-6.525,7.163-10.686,9.604
			c-4.173,2.439-8.693,3.995-13.576,4.656c-4.836,0.655-9.576,0.354-14.211-0.893c-4.636-1.251-8.934-3.385-12.908-6.41
			c-3.971-3.089-7.174-6.698-9.602-10.838C131.953,86.173,130.409,81.638,129.739,76.696 M147.753,74.143
			c0.718,5.307,3.123,9.577,7.222,12.815c4.1,3.239,8.68,4.509,13.724,3.826c5.05-0.683,9.101-3.117,12.149-7.304
			c3.043-4.187,4.198-8.951,3.474-14.29c-0.722-5.34-3.094-9.611-7.117-12.803c-4.034-3.198-8.591-4.456-13.673-3.768
			c-5.11,0.692-9.201,3.13-12.258,7.304C148.202,64.102,147.033,68.834,147.753,74.143"/>
	</g>
	<path fill="#751114" d="M304.709,102.142c-1.814-13.419-10.184-23.348-18.922-22.842c1.875,3.482,3.287,7.562,3.902,12.096
		c0.668,4.944,0.348,9.666-0.742,13.77L13.399,142.482c-4.616,0.623-7.852,4.872-7.226,9.491l8.41,62.111
		c0.626,4.614,4.874,7.852,9.49,7.226l280.949-38.046c4.621-0.628,7.852-4.877,7.227-9.491l-7.996-59.027
		C305.107,110.921,305.316,106.622,304.709,102.142z"/>
	<g>
		<path fill="#FFFFFF" d="M58.145,206.665l-25.021-53.649l9.562-1.285l11.599,27.114l4.285-29.293l9.246-1.235L58.145,206.665z"/>
		<path fill="#FFFFFF" d="M81.858,199.674l-7.083-52.3l9.244-1.252l7.082,52.298L81.858,199.674z"/>
		<path fill="#FFFFFF" d="M118.714,194.683c-5.46,0.74-9.392,0.6-11.793-0.423c-2.401-1.023-3.872-3.519-4.409-7.49l-5.74-42.375
			l9.361-1.268l5.737,42.365c0.284,2.103,0.72,3.271,1.309,3.509c0.454,0.415,2.044,0.435,4.774,0.066l10.063-1.362l0.761,5.613
			L118.714,194.683z"/>
		<path fill="#FFFFFF" d="M147.496,190.784c-5.461,0.74-9.392,0.6-11.794-0.422c-2.401-1.022-3.872-3.517-4.409-7.488l-5.738-42.375
			l9.359-1.268l5.738,42.363c0.283,2.104,0.719,3.271,1.309,3.509c0.453,0.414,2.043,0.437,4.775,0.068l10.061-1.364l0.762,5.615
			L147.496,190.784z"/>
		<path fill="#FFFFFF" d="M185.871,185.587l-1.473-10.88l-11.117,1.505l1.475,10.88l-9.127,1.237l-1.473-10.88l-8.074,1.093
			l-6.111-4.653l13.457-1.822l-3.662-27.03c-0.454-3.352,0.539-6.147,2.976-8.385c2.438-2.237,5.957-3.666,10.56-4.289
			c4.682-0.636,8.394-0.184,11.146,1.35c2.748,1.535,4.352,3.979,4.804,7.333l5.865,43.291L185.871,185.587z M180.008,142.296
			c-0.243-1.792-0.82-2.989-1.736-3.577c-0.912-0.591-2.424-0.746-4.529-0.46c-1.949,0.264-3.306,0.807-4.07,1.623
			c-0.765,0.817-1.021,2.127-0.781,3.919l3.662,27.028l11.115-1.505L180.008,142.296z"/>
		<path fill="#FFFFFF" d="M227.396,179.009c-6.613-1.326-12.23-3.505-16.852-6.532c-6.281-4.156-9.865-9.508-10.753-16.058
			c-0.865-6.397,1.108-12.345,5.923-17.841c3.737-4.082,8.574-7.675,14.508-10.783c4.135-2.305,6.865-3.551,8.192-3.729l0.81,5.967
			c-0.705,0.095-2.607,0.988-5.715,2.68c-4.138,2.306-7.535,5.069-10.195,8.291c-3.451,4.439-4.838,9.155-4.162,14.148
			c0.676,4.989,3.559,9.284,8.654,12.883c1.751,1.195,4.264,2.446,7.539,3.748l-2.439-18.017l9.359-1.268l3.756,27.728
			C235.006,180.363,232.131,179.957,227.396,179.009z"/>
		<path fill="#FFFFFF" d="M264.61,174.923c-8.345,1.131-12.915-1.229-13.706-7.079l-0.285-2.104l-8.073,1.092l-6.112-4.652
			l13.455-1.823l-4.879-36.036l26.443-3.581l0.76,5.614l-17.317,2.346l4.12,30.422l17.318-2.346l0.73,5.384l-17.318,2.346
			l0.427,3.156c0.189,1.406,1.416,1.956,3.678,1.649l13.924-1.887l0.762,5.615L264.61,174.923z"/>
	</g>
</g>
</svg>
